PathFileType	4	(X / Y / Z)	Demo_140333_11_September_2019	Demo_140333_11_September_2019.trc
DataRate	CameraRate	NumFrames	NumMarkers	Units	OrigDataRate	OrigDataStartFrame	OrigNumFrames
50	50	25	25	m	50	410	960
Frame#	Time		SpineBase		SpineMid		Neck		Head		ShoulderLeft		ElbowLeft		WristLeft		HandLeft		ShoulderRight		ElbowRight		WristRight		HandRight		HipLeft		KneeLeft		AnkleLeft		FootLeft		HipRight		KneeRight		AnkleRight		FootRight		SpineShoulder		HandTipLeft		LeftThumb		HandTipRight		ThumbRight		
X1	Y1	Z1	X2	Y2	Z2	X3	Y3	Z3	X4	Y4	Z4	X5	Y5	Z5	X6	Y6	Z6	X7	Y7	Z7	X8	Y8	Z8	X9	Y9	Z9	X10	Y10	Z10	X11	Y11	Z11	X12	Y12	Z12	X13	Y13	Z13	X14	Y14	Z14	X15	Y15	Z15	X16	Y16	Z16	X17	Y17	Z17	X18	Y18	Z18	X19	Y19	Z19	X20	Y20	Z20	X21	Y21	Z21	X22	Y22	Z22	X23	Y23	Z23	X24	Y24	Z24	X25	Y25	Z25	
361	55.978	0.034	0.780	1.721	0.032	1.066	1.693	0.027	1.342	1.652	0.032	1.482	1.620	-0.122	1.235	1.641	-0.179	0.986	1.672	-0.222	0.800	1.617	-0.229	0.752	1.602	0.195	1.240	1.642	0.448	1.298	1.589	0.636	1.429	1.514	0.697	1.476	1.491	-0.041	0.785	1.687	-0.104	0.484	1.726	-0.123	0.167	1.867	-0.125	0.130	1.784	0.108	0.783	1.688	0.113	0.482	1.753	0.077	0.211	1.861	0.076	0.164	1.743	0.028	1.275	1.665	-0.214	0.676	1.600	-0.254	0.750	1.622	0.789	1.522	1.467	0.737	1.499	1.407
362	55.995	0.034	0.780	1.721	0.032	1.066	1.693	0.027	1.342	1.652	0.032	1.482	1.620	-0.122	1.235	1.641	-0.179	0.986	1.672	-0.222	0.800	1.617	-0.229	0.752	1.602	0.195	1.240	1.642	0.448	1.298	1.589	0.636	1.429	1.514	0.697	1.476	1.491	-0.041	0.785	1.687	-0.104	0.484	1.726	-0.123	0.167	1.867	-0.125	0.130	1.784	0.108	0.783	1.688	0.113	0.482	1.753	0.077	0.211	1.861	0.076	0.164	1.743	0.028	1.275	1.665	-0.214	0.676	1.600	-0.254	0.750	1.622	0.789	1.522	1.467	0.737	1.499	1.407
363	56.012	0.034	0.780	1.721	0.032	1.066	1.693	0.027	1.342	1.652	0.032	1.482	1.620	-0.122	1.235	1.641	-0.179	0.986	1.672	-0.222	0.800	1.617	-0.229	0.752	1.602	0.195	1.240	1.642	0.448	1.298	1.589	0.636	1.429	1.514	0.697	1.476	1.491	-0.041	0.785	1.687	-0.104	0.484	1.726	-0.123	0.167	1.867	-0.125	0.130	1.784	0.108	0.783	1.688	0.113	0.482	1.753	0.077	0.211	1.861	0.076	0.164	1.743	0.028	1.275	1.665	-0.214	0.676	1.600	-0.254	0.750	1.622	0.789	1.522	1.467	0.737	1.499	1.407
364	56.029	0.034	0.780	1.721	0.032	1.066	1.693	0.027	1.342	1.652	0.032	1.482	1.620	-0.122	1.235	1.641	-0.179	0.986	1.672	-0.222	0.800	1.617	-0.229	0.752	1.602	0.195	1.240	1.642	0.448	1.298	1.589	0.636	1.429	1.514	0.697	1.476	1.491	-0.041	0.785	1.687	-0.104	0.484	1.726	-0.123	0.167	1.867	-0.125	0.130	1.784	0.108	0.783	1.688	0.113	0.482	1.753	0.077	0.211	1.861	0.076	0.164	1.743	0.028	1.275	1.665	-0.214	0.676	1.600	-0.254	0.750	1.622	0.789	1.522	1.467	0.737	1.499	1.407
365	56.045	0.034	0.782	1.722	0.032	1.067	1.693	0.027	1.342	1.653	0.032	1.482	1.620	-0.122	1.235	1.641	-0.180	0.988	1.673	-0.223	0.802	1.619	-0.230	0.754	1.615	0.202	1.255	1.642	0.441	1.375	1.580	0.543	1.542	1.517	0.564	1.599	1.500	-0.041	0.787	1.688	-0.105	0.486	1.727	-0.122	0.171	1.865	-0.124	0.133	1.778	0.107	0.785	1.690	0.112	0.483	1.753	0.077	0.211	1.861	0.076	0.164	1.743	0.028	1.275	1.665	-0.217	0.680	1.606	-0.255	0.752	1.624	0.621	1.681	1.475	0.594	1.652	1.437
366	56.062	0.034	0.782	1.722	0.032	1.067	1.693	0.027	1.342	1.653	0.032	1.482	1.620	-0.122	1.235	1.641	-0.180	0.988	1.673	-0.223	0.802	1.619	-0.230	0.754	1.615	0.202	1.255	1.642	0.441	1.375	1.580	0.543	1.542	1.517	0.564	1.599	1.500	-0.041	0.787	1.688	-0.105	0.486	1.727	-0.122	0.171	1.865	-0.124	0.133	1.778	0.107	0.785	1.690	0.112	0.483	1.753	0.077	0.211	1.861	0.076	0.164	1.743	0.028	1.275	1.665	-0.217	0.680	1.606	-0.255	0.752	1.624	0.621	1.681	1.475	0.594	1.652	1.437
367	56.079	0.033	0.785	1.724	0.031	1.069	1.694	0.027	1.343	1.653	0.032	1.483	1.621	-0.122	1.236	1.641	-0.180	0.990	1.674	-0.224	0.803	1.623	-0.229	0.752	1.627	0.205	1.264	1.642	0.429	1.394	1.581	0.524	1.564	1.520	0.541	1.622	1.504	-0.041	0.790	1.689	-0.106	0.488	1.728	-0.122	0.176	1.863	-0.123	0.136	1.771	0.107	0.788	1.693	0.112	0.485	1.754	0.077	0.211	1.861	0.076	0.165	1.743	0.028	1.276	1.665	-0.220	0.681	1.611	-0.255	0.753	1.628	0.583	1.720	1.482	0.553	1.695	1.447
368	56.095	0.033	0.785	1.724	0.031	1.069	1.694	0.027	1.343	1.653	0.032	1.483	1.621	-0.122	1.236	1.641	-0.180	0.990	1.674	-0.224	0.803	1.623	-0.229	0.752	1.627	0.205	1.264	1.642	0.429	1.394	1.581	0.524	1.564	1.520	0.541	1.622	1.504	-0.041	0.790	1.689	-0.106	0.488	1.728	-0.122	0.176	1.863	-0.123	0.136	1.771	0.107	0.788	1.693	0.112	0.485	1.754	0.077	0.211	1.861	0.076	0.165	1.743	0.028	1.276	1.665	-0.220	0.681	1.611	-0.255	0.753	1.628	0.583	1.720	1.482	0.553	1.695	1.447
369	56.112	0.033	0.787	1.726	0.031	1.070	1.695	0.027	1.343	1.653	0.032	1.483	1.621	-0.122	1.237	1.642	-0.180	0.991	1.675	-0.225	0.805	1.627	-0.227	0.749	1.637	0.207	1.270	1.642	0.422	1.401	1.583	0.513	1.567	1.523	0.538	1.623	1.507	-0.041	0.792	1.690	-0.106	0.490	1.728	-0.122	0.180	1.862	-0.122	0.138	1.765	0.106	0.791	1.694	0.111	0.486	1.754	0.077	0.211	1.861	0.076	0.165	1.743	0.028	1.276	1.666	-0.221	0.683	1.617	-0.254	0.754	1.633	0.580	1.727	1.492	0.543	1.698	1.457
370	56.129	0.033	0.787	1.726	0.031	1.070	1.695	0.027	1.343	1.653	0.032	1.483	1.621	-0.122	1.237	1.642	-0.180	0.991	1.675	-0.225	0.805	1.627	-0.227	0.749	1.637	0.207	1.270	1.642	0.422	1.401	1.583	0.513	1.567	1.523	0.538	1.623	1.507	-0.041	0.792	1.690	-0.106	0.490	1.728	-0.122	0.180	1.862	-0.122	0.138	1.765	0.106	0.791	1.694	0.111	0.486	1.754	0.077	0.211	1.861	0.076	0.165	1.743	0.028	1.276	1.666	-0.221	0.683	1.617	-0.254	0.754	1.633	0.580	1.727	1.492	0.543	1.698	1.457
371	56.145	0.034	0.789	1.727	0.031	1.071	1.696	0.027	1.344	1.654	0.032	1.483	1.621	-0.122	1.237	1.642	-0.180	0.992	1.676	-0.225	0.805	1.631	-0.225	0.748	1.644	0.208	1.275	1.642	0.416	1.405	1.585	0.515	1.552	1.526	0.560	1.623	1.503	-0.041	0.794	1.691	-0.106	0.492	1.729	-0.122	0.188	1.858	-0.127	0.146	1.760	0.106	0.793	1.696	0.111	0.488	1.754	0.077	0.211	1.861	0.076	0.166	1.742	0.028	1.277	1.666	-0.222	0.684	1.623	-0.253	0.754	1.640	0.603	1.719	1.491	0.552	1.686	1.463
372	56.162	0.034	0.789	1.727	0.031	1.071	1.696	0.027	1.344	1.654	0.032	1.483	1.621	-0.122	1.237	1.642	-0.180	0.992	1.676	-0.225	0.805	1.631	-0.225	0.748	1.644	0.208	1.275	1.642	0.416	1.405	1.585	0.515	1.552	1.526	0.560	1.623	1.503	-0.041	0.794	1.691	-0.106	0.492	1.729	-0.122	0.188	1.858	-0.127	0.146	1.760	0.106	0.793	1.696	0.111	0.488	1.754	0.077	0.211	1.861	0.076	0.166	1.742	0.028	1.277	1.666	-0.222	0.684	1.623	-0.253	0.754	1.640	0.603	1.719	1.491	0.552	1.686	1.463
373	56.179	0.034	0.791	1.728	0.031	1.072	1.696	0.027	1.344	1.654	0.032	1.483	1.621	-0.122	1.238	1.642	-0.180	0.993	1.677	-0.225	0.805	1.635	-0.223	0.746	1.649	0.209	1.278	1.642	0.410	1.401	1.589	0.527	1.528	1.530	0.586	1.591	1.502	-0.040	0.796	1.692	-0.106	0.493	1.729	-0.121	0.191	1.857	-0.127	0.148	1.755	0.106	0.795	1.697	0.110	0.489	1.755	0.077	0.211	1.861	0.076	0.166	1.742	0.028	1.277	1.666	-0.222	0.685	1.627	-0.251	0.754	1.645	0.628	1.679	1.493	0.575	1.616	1.464
374	56.196	0.034	0.791	1.728	0.031	1.072	1.696	0.027	1.344	1.654	0.032	1.483	1.621	-0.122	1.238	1.642	-0.180	0.993	1.677	-0.225	0.805	1.635	-0.223	0.746	1.649	0.209	1.278	1.642	0.410	1.401	1.589	0.527	1.528	1.530	0.586	1.591	1.502	-0.040	0.796	1.692	-0.106	0.493	1.729	-0.121	0.191	1.857	-0.127	0.148	1.755	0.106	0.795	1.697	0.110	0.489	1.755	0.077	0.211	1.861	0.076	0.166	1.742	0.028	1.277	1.666	-0.222	0.685	1.627	-0.251	0.754	1.645	0.628	1.679	1.493	0.575	1.616	1.464
375	56.212	0.034	0.792	1.729	0.031	1.072	1.697	0.027	1.344	1.654	0.032	1.483	1.621	-0.122	1.238	1.642	-0.180	0.993	1.678	-0.224	0.805	1.639	-0.220	0.744	1.652	0.210	1.280	1.642	0.407	1.368	1.598	0.544	1.477	1.538	0.613	1.536	1.507	-0.040	0.797	1.693	-0.107	0.494	1.730	-0.121	0.193	1.856	-0.127	0.149	1.751	0.106	0.796	1.698	0.110	0.491	1.755	0.077	0.211	1.861	0.076	0.166	1.742	0.028	1.278	1.666	-0.220	0.684	1.631	-0.250	0.754	1.650	0.671	1.597	1.498	0.630	1.539	1.461
376	56.229	0.034	0.792	1.729	0.031	1.072	1.697	0.027	1.344	1.654	0.032	1.483	1.621	-0.122	1.238	1.642	-0.180	0.993	1.678	-0.224	0.805	1.639	-0.220	0.744	1.652	0.210	1.280	1.642	0.407	1.368	1.598	0.544	1.477	1.538	0.613	1.536	1.507	-0.040	0.797	1.693	-0.107	0.494	1.730	-0.121	0.193	1.856	-0.127	0.149	1.751	0.106	0.796	1.698	0.110	0.491	1.755	0.077	0.211	1.861	0.076	0.166	1.742	0.028	1.278	1.666	-0.220	0.684	1.631	-0.250	0.754	1.650	0.671	1.597	1.498	0.630	1.539	1.461
377	56.246	0.034	0.793	1.729	0.031	1.073	1.697	0.027	1.345	1.654	0.033	1.483	1.621	-0.122	1.239	1.642	-0.180	0.994	1.680	-0.223	0.805	1.642	-0.218	0.742	1.654	0.210	1.281	1.642	0.408	1.321	1.611	0.573	1.396	1.549	0.641	1.443	1.520	-0.040	0.798	1.693	-0.107	0.495	1.730	-0.121	0.194	1.856	-0.126	0.150	1.749	0.106	0.797	1.699	0.109	0.492	1.755	0.077	0.210	1.861	0.076	0.166	1.742	0.028	1.278	1.667	-0.218	0.683	1.636	-0.248	0.754	1.653	0.706	1.477	1.503	0.651	1.421	1.473
378	56.262	0.034	0.793	1.729	0.031	1.073	1.697	0.027	1.345	1.654	0.033	1.483	1.621	-0.122	1.239	1.642	-0.180	0.994	1.680	-0.223	0.805	1.642	-0.218	0.742	1.654	0.210	1.281	1.642	0.408	1.321	1.611	0.573	1.396	1.549	0.641	1.443	1.520	-0.040	0.798	1.693	-0.107	0.495	1.730	-0.121	0.194	1.856	-0.126	0.150	1.749	0.106	0.797	1.699	0.109	0.492	1.755	0.077	0.210	1.861	0.076	0.166	1.742	0.028	1.278	1.667	-0.218	0.683	1.636	-0.248	0.754	1.653	0.706	1.477	1.503	0.651	1.421	1.473
379	56.279	0.034	0.794	1.730	0.031	1.074	1.697	0.027	1.345	1.654	0.033	1.483	1.622	-0.122	1.239	1.643	-0.179	0.994	1.681	-0.221	0.804	1.645	-0.217	0.742	1.655	0.209	1.281	1.642	0.414	1.270	1.623	0.603	1.306	1.562	0.664	1.333	1.539	-0.040	0.798	1.694	-0.107	0.496	1.730	-0.121	0.195	1.855	-0.126	0.150	1.747	0.107	0.798	1.700	0.109	0.492	1.755	0.077	0.210	1.860	0.076	0.166	1.742	0.028	1.278	1.667	-0.216	0.682	1.639	-0.247	0.755	1.656	0.731	1.349	1.516	0.670	1.308	1.490
380	56.296	0.034	0.794	1.730	0.031	1.074	1.697	0.027	1.345	1.654	0.033	1.483	1.622	-0.122	1.239	1.643	-0.179	0.994	1.681	-0.221	0.804	1.645	-0.217	0.742	1.655	0.209	1.281	1.642	0.414	1.270	1.623	0.603	1.306	1.562	0.664	1.333	1.539	-0.040	0.798	1.694	-0.107	0.496	1.730	-0.121	0.195	1.855	-0.126	0.150	1.747	0.107	0.798	1.700	0.109	0.492	1.755	0.077	0.210	1.860	0.076	0.166	1.742	0.028	1.278	1.667	-0.216	0.682	1.639	-0.247	0.755	1.656	0.731	1.349	1.516	0.670	1.308	1.490
381	56.312	0.034	0.795	1.730	0.031	1.074	1.698	0.027	1.346	1.655	0.033	1.484	1.622	-0.122	1.239	1.643	-0.179	0.994	1.682	-0.220	0.803	1.647	-0.215	0.741	1.656	0.209	1.280	1.643	0.412	1.210	1.636	0.624	1.213	1.579	0.685	1.218	1.564	-0.040	0.799	1.694	-0.107	0.496	1.731	-0.121	0.196	1.855	-0.125	0.151	1.745	0.107	0.798	1.700	0.109	0.493	1.756	0.078	0.210	1.860	0.076	0.167	1.742	0.028	1.279	1.667	-0.213	0.680	1.642	-0.245	0.751	1.660	0.756	1.216	1.544	0.700	1.193	1.510
382	56.329	0.034	0.795	1.730	0.031	1.074	1.698	0.027	1.346	1.655	0.033	1.484	1.622	-0.122	1.239	1.643	-0.179	0.994	1.682	-0.220	0.803	1.647	-0.215	0.741	1.656	0.209	1.280	1.643	0.412	1.210	1.636	0.624	1.213	1.579	0.685	1.218	1.564	-0.040	0.799	1.694	-0.107	0.496	1.731	-0.121	0.196	1.855	-0.125	0.151	1.745	0.107	0.798	1.700	0.109	0.493	1.756	0.078	0.210	1.860	0.076	0.167	1.742	0.028	1.279	1.667	-0.213	0.680	1.642	-0.245	0.751	1.660	0.756	1.216	1.544	0.700	1.193	1.510
383	56.346	0.034	0.795	1.731	0.031	1.074	1.698	0.027	1.346	1.655	0.033	1.484	1.622	-0.122	1.240	1.643	-0.178	0.993	1.683	-0.218	0.802	1.649	-0.214	0.741	1.655	0.207	1.276	1.646	0.397	1.151	1.649	0.610	1.109	1.597	0.654	1.105	1.597	-0.040	0.799	1.694	-0.106	0.497	1.731	-0.121	0.197	1.855	-0.124	0.151	1.744	0.107	0.798	1.700	0.109	0.493	1.756	0.078	0.210	1.860	0.076	0.167	1.742	0.028	1.279	1.668	-0.210	0.678	1.643	-0.244	0.749	1.662	0.730	1.079	1.582	0.677	1.074	1.544
384	56.363	0.034	0.795	1.731	0.031	1.074	1.698	0.027	1.346	1.655	0.033	1.484	1.622	-0.122	1.240	1.643	-0.178	0.993	1.683	-0.218	0.802	1.649	-0.214	0.741	1.655	0.207	1.276	1.646	0.397	1.151	1.649	0.610	1.109	1.597	0.654	1.105	1.597	-0.040	0.799	1.694	-0.106	0.497	1.731	-0.121	0.197	1.855	-0.124	0.151	1.744	0.107	0.798	1.700	0.109	0.493	1.756	0.078	0.210	1.860	0.076	0.167	1.742	0.028	1.279	1.668	-0.210	0.678	1.643	-0.244	0.749	1.662	0.730	1.079	1.582	0.677	1.074	1.544
385	56.379	0.034	0.795	1.731	0.031	1.074	1.698	0.027	1.346	1.655	0.033	1.484	1.622	-0.122	1.240	1.643	-0.178	0.993	1.683	-0.218	0.802	1.649	-0.214	0.741	1.655	0.207	1.276	1.646	0.397	1.151	1.649	0.610	1.109	1.597	0.654	1.105	1.597	-0.040	0.799	1.694	-0.106	0.497	1.731	-0.121	0.197	1.855	-0.124	0.151	1.744	0.107	0.798	1.700	0.109	0.493	1.756	0.078	0.210	1.860	0.076	0.167	1.742	0.028	1.279	1.668	-0.210	0.678	1.643	-0.244	0.749	1.662	0.730	1.079	1.582	0.677	1.074	1.544
